<?xml version="1.0" encoding="utf-8"?>
<!-- Generator: Adobe Illustrator 27.5.0, SVG Export Plug-In . SVG Version: 6.00 Build 0)  -->
<svg version="1.1" id="Capa_1" xmlns="http://www.w3.org/2000/svg" xmlns:xlink="http://www.w3.org/1999/xlink" x="0px" y="0px"
	 viewBox="0 0 1784 2524" style="enable-background:new 0 0 1784 2524;" xml:space="preserve">
<path style="fill:#FDCB07;" d="M1112.772,431.425c17.3-16.209,27.218-40.008,26.553-63.705c-0.403-14.338-4.423-29.053-0.17-42.752
	c1.957-6.303,5.658-12.416,4.956-18.979c-0.694-6.48-5.57-11.807-6.952-18.176c-1.361-6.273,0.805-12.841-0.112-19.194
	c-1.657-11.485-13.88-19.602-25.457-18.806c-11.575,0.796-21.755,8.956-27.36,19.115c-1.643,2.975-13.124-11.103-13.818-12.533
	c-3.591-7.403-2.213-13.175-0.555-20.663c3.371-15.231,8.579-29.1-6.242-41.139c-5.983-4.859-14.093-7.743-17.59-14.612
	c-2.124-4.174-2.187-9.297-4.944-13.083c-3.725-5.116-11.442-6.494-14.346-12.118c-2.677-5.187-0.05-11.696-1.852-17.249
	c-2.6-8.01-13.622-10.407-21.258-6.856c-7.635,3.551-12.585,10.989-17.138,18.073c-6.83,10.624-13.66,21.249-20.49,31.874
	c-2.918,4.538-5.963,9.775-4.646,15.007c1.134,4.502,5.32,7.879,5.982,12.475c0.74,5.128-3.281,9.867-7.897,12.22
	c-4.616,2.353-9.878,3.063-14.749,4.828c-10.276,3.725-17.701,11.683-22.566,21.456c82.511,61.575,122.629,174.467,119.672,308.844
	c3.996-0.274,7.808-1.018,10.925-3.242c11.407-8.136,7.623-31.318,21.346-34.146c4.555-0.939,9.235,1.192,13.867,0.772
	c14.351-1.302,16.58-23.089,29.246-29.961c6.241-3.385,15.336-3.476,18.086-10.021c3.22-7.663-5.974-14.614-13.904-17.106
	c-7.93-2.492-17.875-5.867-18.647-14.144C1102.099,441.034,1107.957,435.938,1112.772,431.425z"/>
<path style="fill:#FDCB07;" d="M1147.382,686.145c-4.933-2.093-10.518,1.417-13.826,5.63c-3.308,4.214-5.598,9.369-9.892,12.572
	c-10.145,7.567-24.123,0.463-36.493-2.212c-20.362-4.403-43.02,5.78-53.246,23.93c-1.635,2.901-3.01,6.018-5.32,8.415
	c-3.641,3.777-9.388,4.58-14.351,3.043c-1.282,4.729-2.61,9.466-3.982,14.211v0.001c44.963-10.183,89.875-20.588,134.733-31.224
	c-0.172,0.089-0.344,0.174-0.519,0.258c0.697-0.331,1.367-0.701,1.996-1.132c5.673-3.886,6.932-11.649,7.101-18.524
	C1153.722,695.363,1152.676,688.393,1147.382,686.145z"/>
<path style="fill:#FDCB07;" d="M1024.808,693.035c4.078-5.67,6.537-11.533,4.404-17.93c-0.101-0.304-0.211-0.6-0.328-0.89
	c-1.156,6.074-2.389,12.171-3.699,18.289C1025.061,692.681,1024.935,692.858,1024.808,693.035z"/>
<path style="fill:#43AD4D;" d="M1291.055,1015.382l-0.312-0.696c-2.933-5.72-11.617-5.064-16.397-9.36
	c-6.815-6.125-2.105-17.471-4.356-26.353c-3.246-12.804-19.209-16.714-32.325-18.269c-15.362-1.821-30.724-3.642-46.085-5.463
	c-2.933-0.348-5.994-0.742-8.426-2.417c-10.961-7.549-1.202-23.722,5.774-30.081c6.872-6.264,16.047-12.995,14.771-22.205
	c-0.966-6.974-7.852-11.763-9.712-18.554c-3.544-12.946,11.626-22.507,23.999-27.709c3.428-1.441,7.065-3.105,8.963-6.304
	c4.057-6.84-2.976-15.736-10.781-17.267c-7.803-1.531-15.682,1.44-23.514,2.823c-14.824,2.617-56.836-30.176-50.014-46.815
	c2.081-5.078,6.711-9.279,6.897-14.764c0.161-4.746-3.075-8.824-5.037-13.148c-1.96-4.324-1.995-10.617,2.331-12.575
	c-4.877-0.796-9.964-1.678-13.924-4.635c-3.96-2.957-6.327-8.679-3.918-12.994c0.097-0.175,0.201-0.344,0.309-0.507
	c0.037-0.057,0.077-0.11,0.116-0.166c0.072-0.104,0.145-0.209,0.22-0.31c0.048-0.061,0.097-0.12,0.145-0.18
	c0.072-0.09,0.145-0.179,0.22-0.265c0.051-0.058,0.104-0.113,0.157-0.17c0.077-0.084,0.156-0.167,0.236-0.247
	c0.053-0.053,0.109-0.106,0.164-0.158c0.082-0.077,0.164-0.153,0.249-0.227c0.059-0.052,0.119-0.102,0.178-0.152
	c0.085-0.072,0.173-0.142,0.262-0.211c0.06-0.047,0.122-0.094,0.183-0.14c0.093-0.068,0.185-0.134,0.28-0.2
	c0.06-0.042,0.121-0.084,0.182-0.125c0.104-0.069,0.212-0.137,0.319-0.203c0.054-0.033,0.106-0.066,0.159-0.097
	c0.132-0.079,0.267-0.155,0.404-0.23c0.029-0.016,0.058-0.033,0.088-0.049c3.411-1.837,7.919-2.428,11.624-4.187
	c0.001,0,0.001-0.001,0.003-0.001c0.174-0.083,0.347-0.169,0.519-0.258c-44.859,10.636-89.77,21.041-134.733,31.224
	c-11.245,38.88-25.491,78.294-42.75,117.704c17.067-0.484,35.396-1.012,57.572-1.669c-34.843,60.258-52.865,90.157-88.935,150.159
	c11.254,29.017,20.484,51.921,29.906,73.695c110.508-20.967,220.711-41.734,324.994-76.24L1291.055,1015.382z"/>
<g>
	<path style="fill:#C11D2F;" d="M1386.818,1001.028c-10.868,10.023-26.268,16.119-39.281,23.215
		c-4.213,2.296-8.996,4.667-13.606,3.333c-1.876-0.543-3.54-1.67-5.412-2.224c-6.749-2.003-13.039,3.662-18.7,7.847
		c-5.661,4.185-15.212,6.409-18.545,0.208c-0.087-0.161-0.166-0.323-0.239-0.488c-0.004-0.01-0.01-0.021-0.015-0.031
		c-0.071-0.159-0.133-0.32-0.191-0.481c-0.006-0.014-0.011-0.028-0.016-0.043c-0.056-0.158-0.106-0.316-0.151-0.476
		c-0.005-0.02-0.011-0.04-0.017-0.059c-0.043-0.159-0.081-0.319-0.116-0.48c-0.004-0.02-0.008-0.039-0.012-0.058
		c-0.033-0.16-0.06-0.322-0.084-0.484c-0.004-0.023-0.007-0.044-0.01-0.066c-0.023-0.161-0.041-0.322-0.055-0.484
		c-0.003-0.024-0.004-0.049-0.007-0.072c-0.013-0.159-0.022-0.318-0.029-0.478c-0.001-0.03-0.002-0.059-0.004-0.09
		c-0.004-0.158-0.007-0.318-0.006-0.478c0-0.03,0.001-0.059,0.002-0.088c0.001-0.163,0.007-0.326,0.014-0.49
		c0.001-0.023,0.002-0.046,0.003-0.068c0.009-0.167,0.019-0.335,0.033-0.502c0.002-0.031,0.006-0.062,0.008-0.093
		c0.014-0.161,0.03-0.322,0.047-0.484c0.004-0.034,0.008-0.068,0.011-0.102c0.018-0.148,0.035-0.296,0.055-0.445
		c0.006-0.049,0.013-0.097,0.02-0.145c0.019-0.141,0.039-0.281,0.061-0.421c0.007-0.044,0.013-0.088,0.02-0.132
		c0.022-0.142,0.045-0.285,0.069-0.428c0.023-0.144,0.048-0.288,0.074-0.432c0.001-0.006,0.001-0.012,0.003-0.019
		c0.529-3.01,1.29-6.075,0.64-8.84c0-0.001,0-0.002-0.001-0.003c-0.084-0.358-0.192-0.711-0.326-1.057
		c-0.001-0.001-0.001-0.002-0.001-0.004c-104.283,34.506-214.486,55.273-324.994,76.24c13.153,30.395,26.681,58.589,46.617,98.13
		c-72.117-21.293-107.169-32.026-174.826-53.249c-51.945,46.403-78.207,69.93-130.292,119.892
		c-0.798-10.661-1.511-20.573-2.146-29.95c-39.825,33.32-80.877,60.995-121.966,82.379c0.169-0.472,0.339-0.944,0.509-1.415
		c-0.974,2.699-2.024,5.399-1.931,8.221c0.244,7.268,7.424,11.238,9.02,17.852c1.219,5.046-1.01,8.889-0.656,13.779
		c0.934,12.942,5.867,27.494,17.17,35.086c6.659,4.472,15.711,6.676,19.075,13.958c3.276,7.095-0.582,15.818,2.203,23.12
		c2.286,5.991,8.49,9.602,11.615,15.201c6.858,12.285-2.837,30.015,6.149,40.841c3.141,3.784,8.028,5.814,11.093,9.661
		c7.323,9.195,0.869,22.681-6.319,31.981c-7.189,9.3-15.602,20.651-11.395,31.626c2.659,6.936,10.071,12.034,10.247,19.461
		c0.146,6.156-4.796,11.096-9.367,15.222c-8.782,7.925-17.563,15.85-26.345,23.775c-6.527,5.891-13.573,15.218-8.557,22.438
		c2.379,3.424,6.912,4.995,8.935,8.641c5.959,10.741-14.978,19.832-13.648,32.043c0.742,6.819,8.171,10.866,10.811,17.197
		c2.306,5.533,0.621,11.799,0.047,17.766c-0.573,5.967,0.803,13.195,6.32,15.539c9.459,4.018,16.049-9.279,23.464-16.393
		c7.132-6.841,18.882-8.26,27.436-3.313c3.546,2.051,6.612,5.078,10.551,6.203c11.127,3.179,26.196-8.98,32.87,0.474
		c2.684,3.8,1.926,9.52,5.277,12.746c2.524,2.427,6.401,2.499,9.794,3.366c7.968,2.037,15.158,9.117,23.138,7.127
		c14.312-3.568,9.16-28.228,21.28-36.635c3.394-2.354,7.654-2.996,11.476-4.561c11.268-4.615,17.455-16.45,25.845-25.276
		c9.862-10.373,23.089-16.757,36.007-22.92c1.96-0.935,4.044-1.895,6.208-1.699c4.165,0.378,6.828,4.74,10.765,6.151
		c6.163,2.21,12.361-3.554,15.133-9.485c2.773-5.931,4.208-12.893,9.207-17.122c4.507-3.813,10.931-4.491,15.818-7.803
		c8.837-5.989,10.115-18.441,9.146-29.072c-0.968-10.632-3.188-21.962,1.548-31.528c1.141-2.305,2.804-4.533,5.212-5.438
		c5.646-2.121,10.845,3.795,14,8.936c8.173,13.311,9.861,25.724,14.997,39.666c4.745,12.879,17.725,21.29,18.63,36.009
		c0.367,5.979-1.268,11.975-0.636,17.931c1.965,18.505,23.845,28.616,29.789,46.25c3.705,10.988,1.295,24.853,9.824,32.71
		c2.868,2.642,6.73,4.253,8.929,7.475c3.594,5.265,1.36,12.398,2.299,18.704c1.154,7.744,7.068,13.889,9.719,21.255
		c7.909,21.975-14.8,45.847-8.197,68.249c1.662,5.638,5.147,10.852,5.275,16.73c0.342,15.85-5.505,22.076,12.854,30.311
		c7.295,3.273,15.493,6.451,19.223,13.523c1.884,3.573,2.347,7.7,2.776,11.716c1.76,16.464,3.521,33.075,1.784,49.542
		c-0.735,6.967-2.095,13.976-1.208,20.925c0.888,6.949,4.578,14.062,11.059,16.723c1.367,0.562,2.848,0.911,4.322,0.793
		c6.409-0.512,8.86-8.864,7.869-15.217c-0.992-6.352-3.708-12.986-1.304-18.949c6.195-0.804,11.413,5.182,12.843,11.263
		c1.43,6.08,0.364,12.455,0.9,18.678c1.229,14.256,17.651,25.33,21.192,41.003c1.633,7.224-0.85,15.575,1.997,22.445
		c3.973,9.584,12.854,12.027,14.693,23.128c1.622,9.79-4.219,19.458-1.363,29.453c1.213,4.156,3.871,8.078,3.491,12.39
		c-0.439,4.978-4.786,8.748-6.125,13.563c-3.16,11.367,5.439,21.958,1.953,34.209c-3.67,12.902-15.72,21.065-19.691,32.922
		c-1.859,5.554,2.711,13.438,8.218,11.442c1.112-6.686,3.074-14.038,8.844-17.594c5.536-3.412,13.52-1.731,17.455,3.446
		c3.934,5.178,3.543,13.077-0.651,18.047c-1.187,1.407-2.646,2.621-3.49,4.257c-3.264,6.331,3.705,16.101-2.029,20.327
		c-2.34,1.725-5.656,1.261-8.289,2.495c-4.493,2.106-5.363,8.194-4.447,13.072c0.916,4.877,2.987,9.756,2.047,14.629
		c-5.301-1.719-11.596,2.965-11.471,8.536c0.102,4.558,3.707,8.71,2.984,13.211c-0.751,4.681-5.634,7.262-9.532,9.97
		c-25.054,17.398-2.354,65,5.366,84.211c4.009,1.553,8.687-0.89,11.045-4.485c2.358-3.596,2.931-8.041,3.343-12.321
		c1.297-13.469,1.608-27.033,0.927-40.547c-0.306-6.069-0.44-13.084,4.143-17.073c2.976-2.59,7.148-3.121,10.974-4.084
		c13.188-3.322,24.491-13.375,29.326-26.086c1.328-3.496,2.355-7.404,5.296-9.714c2.206-1.733,5.119-2.244,7.587-3.576
		c7.846-4.237,8.922-14.797,9.637-23.687c1.084-13.468,8.965-23.863,19.625-31.511c7.136-5.119,21.409-7.496,21.017-18.795
		c-0.307-8.828-11.023-13.649-13.911-21.997c-3.887-11.239,3.863-21.389-2.048-32.318c-3.812-7.049-10.236-13.261-13.059-20.787
		c-3.086-8.224,0.167-14.158-1.999-21.731c-3.469-12.134-23.101-18.711-20.734-32.648c0.665-3.915,3.338-7.838,1.884-11.534
		c-1.406-3.577-5.846-4.727-8.644-7.368c-8.915-8.421,2.16-21.081,4.165-29.885c4.015-17.64,0.604-36.254-0.633-54.169
		c-0.332-4.818-0.711-9.801-2.986-14.06c-3.081-5.768-9.074-9.241-14.511-12.874c-21.608-14.437-38.424-35.919-47.253-60.359
		c-1.779-4.924-3.277-10.033-6.165-14.4c-2.988-4.516-7.284-7.97-11.319-11.582c-7.942-7.109-15.101-15.094-21.304-23.762
		c-5.835-8.154-11.004-17.684-9.989-27.658c1.016-9.974,10.822-19.445,20.442-16.622c-4.199-4.049,2.603-10.475,8.413-10.984
		c5.811-0.509,13.38-0.355,15.377-5.836c3.949-10.836-7.279-28.039,0.179-39.248c2.267-3.407,6.403-5.356,8.243-9.012
		c5.369-10.675-12.131-25.821-2.983-33.507c2.785-2.34,6.776-2.278,10.369-2.842c17.445-2.733,27.847-25.913,18.291-40.761
		c-6.094,1.487-10.72,6.295-16.06,9.585c-5.339,3.29-13.113,4.722-17.3,0.052c-3.731-4.161-2.489-10.68-4.295-15.97
		c-2.461-7.214-10.037-11.058-15.972-15.841c-5.935-4.783-10.708-13.719-5.925-19.655c2.335-2.9,6.324-4.072,8.669-6.965
		c4.568-5.639,0.427-14.383-5.46-18.627c-5.887-4.244-13.299-6.224-18.637-11.141c-5.863-5.4-8.304-13.436-11.846-20.576
		c-12.465-25.121-39.32-40.005-54.687-63.464c-2.837-4.33-5.333-9.22-5.11-14.391c0.472-10.913,12.657-19.057,11.968-29.958
		c-0.535-8.461-8.7-14.356-16.646-17.31c-7.947-2.954-16.756-4.427-23.282-9.838c-6.526-5.412-9.026-16.955-2.15-21.915
		c12.403,2.914,25.654,5.789,37.627,1.433c11.973-4.356,21.023-19.077,14.726-30.153c-3.674-6.462-11.967-11.758-10.12-18.958
		c1.473-5.738,8.526-7.801,12.384-12.295c13.45-15.669-6.253-26.302-7.553-41.661c-0.892-10.552,8.164-18.905,13.284-28.174
		c3.06-5.538,4.829-11.803,8.599-16.884c3.771-5.081,10.598-8.801,16.41-6.3c3.883,1.671,6.215,5.573,9.095,8.667
		c7.998,8.596,21.883,11.015,32.318,5.631c4.948-2.554,8.984-6.555,13.634-9.618c11.04-7.272,25.657-8.793,37.958-3.95
		c2.994,1.178,6.006,2.736,9.217,2.552c6.365-0.364,10.321-7.308,11.144-13.63c0.822-6.322-0.217-12.935,1.824-18.974
		c3.052-9.024,13.5-14.832,22.774-12.659c5.887,1.379,11.128,5.494,17.174,5.489c18.861-0.015,5.554-25.779,2.994-35.372
		c6.255-3.609,13.601,1.817,19.478,6.016c5.876,4.198,16,6.303,18.751-0.375c0.996-2.417,0.488-5.166,0.834-7.757
		c0.672-5.038,4.973-9.368,10.007-10.073c5.033-0.705,10.359,2.277,12.389,6.937c0.736,1.69,1.088,3.578,2.185,5.06
		c3.151,4.255,10.572,2.198,13.126-2.44c2.554-4.638,1.725-10.334,0.716-15.532c-1.009-5.198-2.09-10.784,0.065-15.621
		c3.159-7.094,12.24-10.192,15.152-17.39c0.973-2.404,1.316-5.325,3.423-6.838c2.625-1.884,6.226-0.436,9.21,0.803
		c6.521,2.709,13.552,4.184,20.613,4.322c5.315,0.104,12.475-3.045,10.89-8.119c-0.852-2.722-4.041-4.174-4.955-6.876
		c-1.178-3.483,1.989-6.942,5.259-8.622c3.271-1.68,7.13-2.717,9.312-5.676c5.798-7.869-5.571-20.032-0.259-28.239
		c2.817-4.353,8.762-4.983,13.651-6.711c16.701-5.903,22.616-26.046,26.205-43.393
		C1404.292,989.157,1392.58,995.713,1386.818,1001.028z"/>
</g>
<path style="fill:#EEF3F6;" d="M936.157,1017.93c36.07-60.002,54.092-89.901,88.935-150.159
	c-22.175,0.658-40.505,1.186-57.572,1.669c-15.005,34.262-32.286,68.519-51.856,102.414
	c-59.539,103.125-132.56,189.597-210.248,254.595c0,0,0,0.001-0.001,0.001c0.635,9.377,1.347,19.289,2.146,29.95
	c52.085-49.962,78.348-73.49,130.292-119.892c67.657,21.223,102.709,31.955,174.826,53.249
	c-19.936-39.542-33.464-67.735-46.617-98.13C956.641,1069.851,947.411,1046.946,936.157,1017.93z"/>
<path style="fill:#FFEF3A;" d="M1017.894,560.669c0.025-0.03,0.051-0.059,0.075-0.089c0.104-0.122,0.21-0.24,0.318-0.357
	c0.009-0.008,0.016-0.018,0.025-0.026c0.117-0.126,0.237-0.248,0.358-0.367c0.023-0.022,0.047-0.044,0.07-0.067
	c0.107-0.103,0.215-0.204,0.325-0.301c0.017-0.015,0.033-0.031,0.051-0.046c0.128-0.113,0.258-0.222,0.389-0.329
	c0.013-0.01,0.026-0.02,0.039-0.03c0.116-0.093,0.235-0.183,0.354-0.272c0.026-0.019,0.052-0.038,0.078-0.057
	c0.135-0.098,0.271-0.193,0.41-0.284c0-0.001,0.001-0.001,0.001-0.001c0.136-0.09,0.274-0.177,0.413-0.261
	c0.026-0.015,0.05-0.03,0.075-0.044c0.286-0.17,0.578-0.329,0.876-0.476c0.02-0.011,0.042-0.021,0.062-0.031
	c0.303-0.148,0.613-0.286,0.928-0.412c0.015-0.006,0.031-0.011,0.046-0.018c0.153-0.061,0.308-0.12,0.465-0.176
	c0.006-0.002,0.011-0.004,0.017-0.007c0.167-0.059,0.335-0.116,0.505-0.171c0.005-0.002,0.011-0.004,0.017-0.006
	c0.157-0.05,0.314-0.097,0.472-0.144c0.022-0.006,0.043-0.013,0.065-0.018c0.338-0.096,0.68-0.183,1.027-0.262
	c0.011-0.002,0.023-0.005,0.034-0.008c0.354-0.079,0.714-0.151,1.077-0.215c0.008-0.001,0.015-0.002,0.021-0.004
	c4.712-0.82,10.167-0.368,15.305-0.72c2.961-134.385-37.157-247.286-119.674-308.862c-0.635,1.277-1.228,2.585-1.776,3.918
	c-0.001,0.001-0.001,0.002-0.001,0.002c-0.272,0.661-0.534,1.329-0.784,2.001c-0.006,0.014-0.011,0.028-0.016,0.042
	c-0.122,0.328-0.242,0.658-0.359,0.989c-0.002,0.008-0.005,0.015-0.008,0.022c-0.114,0.324-0.227,0.649-0.336,0.975
	c-0.011,0.031-0.022,0.063-0.032,0.094c-0.104,0.313-0.208,0.627-0.309,0.943c-0.01,0.031-0.02,0.062-0.029,0.093
	c-0.1,0.316-0.198,0.632-0.294,0.95c-0.01,0.03-0.019,0.061-0.028,0.092c-0.096,0.317-0.188,0.635-0.28,0.954
	c-0.008,0.034-0.019,0.068-0.029,0.102c-0.088,0.312-0.174,0.624-0.258,0.938c-0.012,0.045-0.025,0.09-0.036,0.135
	c-0.079,0.296-0.157,0.592-0.232,0.89c-0.016,0.064-0.033,0.128-0.049,0.191c-0.076,0.303-0.149,0.606-0.221,0.909
	c-0.011,0.044-0.022,0.087-0.032,0.131c-0.07,0.298-0.138,0.596-0.204,0.895c-0.016,0.07-0.032,0.14-0.046,0.21
	c-0.065,0.293-0.128,0.587-0.188,0.881c-0.012,0.057-0.023,0.114-0.035,0.171c-0.063,0.307-0.124,0.614-0.183,0.922
	c-0.01,0.051-0.02,0.102-0.03,0.152c-0.056,0.294-0.109,0.588-0.161,0.882c-0.013,0.075-0.027,0.149-0.04,0.223
	c-0.048,0.274-0.093,0.548-0.138,0.821c-0.016,0.094-0.032,0.187-0.046,0.281c-0.042,0.258-0.081,0.515-0.119,0.773
	c-0.016,0.103-0.032,0.205-0.047,0.307c-0.042,0.285-0.081,0.572-0.12,0.857c-0.009,0.068-0.019,0.135-0.028,0.203
	c-0.035,0.27-0.069,0.538-0.102,0.808c-0.012,0.106-0.027,0.211-0.038,0.316c-0.031,0.258-0.06,0.516-0.087,0.775
	c-0.011,0.096-0.022,0.192-0.032,0.289c-0.026,0.253-0.05,0.507-0.075,0.76c-0.01,0.116-0.022,0.233-0.033,0.349
	c-0.021,0.236-0.04,0.472-0.059,0.708c-0.01,0.123-0.021,0.246-0.03,0.369c-0.017,0.225-0.033,0.451-0.048,0.677
	c-0.01,0.14-0.02,0.28-0.029,0.42c-0.016,0.237-0.027,0.473-0.04,0.709c-0.007,0.118-0.014,0.236-0.02,0.353
	c-0.013,0.252-0.023,0.504-0.033,0.756c-0.005,0.108-0.01,0.217-0.014,0.325c-0.009,0.264-0.017,0.528-0.024,0.792
	c-0.003,0.093-0.005,0.186-0.008,0.28c-0.008,0.336-0.013,0.672-0.017,1.008c-0.001,0.018-0.001,0.036-0.001,0.054
	c-0.003,0.324-0.004,0.648-0.003,0.971c0,0.036-0.001,0.072-0.001,0.109c0.001,0.357,0.005,0.713,0.011,1.068
	c0.063,3.722,0.365,7.615,2.328,10.779c4.644,7.485,16.338,7.788,21.194,15.136c3.565,5.393,1.518,13.646-4.153,16.749
	c-5.67,3.103-13.725,0.376-16.345-5.533c-1.103-2.487-1.306-5.267-1.979-7.904c-3.509-13.777-19.56-21.228-33.725-19.933
	c-16.165,1.48-31.181,8.908-45.231,16.495c-5.174,2.794-10.538,5.204-15.952,7.519c-9.665,4.131-19.489,7.955-28.682,13.108
	c-10.273,5.758-19.624,15.358-20.209,27.119c-0.098,1.956,0.034,4.006-0.804,5.777c-3.899,8.236-18.742-1.213-25.183,5.232
	c-2.514,2.515-2.701,6.684-5.162,9.251c-2.603,2.716-6.812,2.8-10.464,3.701c-0.581,0.143-1.15,0.31-1.707,0.499
	c-0.372,0.126-0.738,0.262-1.1,0.407c-0.541,0.217-1.071,0.457-1.588,0.716c-0.346,0.173-0.685,0.355-1.02,0.546
	c-0.668,0.381-1.316,0.797-1.942,1.244c-7.82,5.593-12.247,16.134-12.763,26.091c-0.041,0.797-0.063,1.592-0.07,2.387
	c-0.093,11.917,3.579,23.604,5.406,35.429c0.548,3.547,0.895,7.216,0.926,10.872c0.078,9.342-1.914,18.599-7.921,25.533
	c-4.815,5.557-12.394,10.433-12.448,17.526c-0.002,0.349,0.013,0.703,0.048,1.062c0.4,4.116,3.468,8.063,3.376,11.948
	c-0.017,0.72-0.143,1.438-0.414,2.154c-2.557,6.756-13.57,3.993-18.895,8.874c-3.46,3.171-3.505,8.657-6.177,12.515
	c-2.985,4.313-8.59,5.796-12.834,8.879c-5.048,3.667-7.894,9.942-7.874,16.151c0.009,2.822,0.609,5.631,1.864,8.174
	c2.724,5.526,8.071,9.799,9.265,15.842c0.173,0.878,0.253,1.749,0.255,2.614c0.01,6.06-3.787,11.861-5.71,17.818
	c-2.794,8.649-1.628,18.055-3.122,27.02c-1.922,11.54-8.132,20.684-14.018,30.473c-4.6,7.651-7.584,18.486-13.283,24.933
	c-3.778,4.275-8.477,7.684-12.087,12.101c-4.707,5.757-7.302,13.164-7.398,20.591c-0.032,2.476,0.214,4.953,0.751,7.373
	c0.668,3.007,1.657,6.381,1.681,9.423c0.019,2.365-0.545,4.53-2.297,6.164c-1.51,1.409-3.603,1.998-5.637,2.355
	c-10.533,1.842-21.859-1.638-29.539-9.078c-2.298-2.226-4.325-4.811-7.078-6.441c-8.186-4.844-19.498,0.355-27.828-4.235
	c-6.673-3.677-10.261-13.049-17.869-13.444c-2.044-0.106-4.123,0.512-6.121,0.066c-5.412-1.208-8.677-9.621-13.891-7.729
	c-3.135,1.138-3.747,5.245-3.743,8.582c0.009,6.263,0.812,15.421,5.723,20.034c7.144,6.708,16.557,1.578,24.274,6.549
	c6.295,4.056,9.228,11.148,9.32,18.37c0.003,0.233,0.003,0.466,0,0.699c-0.094,7.46-3.198,14.956-8.739,19.291
	c-8.146,6.372-14.047,16.998-16.43,27.019c-0.406,1.707-0.561,3.575-0.561,5.542c-0.004,6.078,1.457,13.096,1.474,19.185
	c0.01,3.403-0.431,6.514-1.83,9.01c-2.299,4.099-8.241,3.384-12.83,4.4c-0.267,0.059-0.529,0.126-0.788,0.199
	c-0.068,0.018-0.134,0.041-0.2,0.06c-0.186,0.055-0.371,0.112-0.554,0.174c-0.091,0.031-0.18,0.065-0.269,0.097
	c-0.159,0.057-0.317,0.117-0.473,0.18c-0.092,0.037-0.183,0.076-0.274,0.115c-0.152,0.064-0.302,0.131-0.449,0.201
	c-0.091,0.042-0.182,0.086-0.272,0.13c-0.145,0.072-0.288,0.147-0.432,0.223c-0.087,0.047-0.175,0.093-0.261,0.141
	c-0.147,0.082-0.291,0.167-0.434,0.254c-0.078,0.048-0.158,0.093-0.236,0.142c-0.165,0.104-0.327,0.213-0.488,0.322
	c-0.052,0.036-0.106,0.069-0.158,0.106c-0.212,0.148-0.42,0.301-0.624,0.459c-0.052,0.04-0.103,0.083-0.154,0.124
	c-0.15,0.119-0.299,0.239-0.446,0.363c-0.078,0.068-0.155,0.137-0.233,0.205c-0.116,0.101-0.23,0.202-0.342,0.307
	c-0.087,0.079-0.17,0.161-0.256,0.243c-0.103,0.1-0.206,0.2-0.307,0.302c-0.082,0.084-0.164,0.169-0.246,0.254
	c-0.103,0.109-0.207,0.219-0.308,0.331c-0.075,0.082-0.149,0.164-0.223,0.247c-0.098,0.112-0.195,0.227-0.291,0.342
	c-0.078,0.092-0.156,0.184-0.231,0.278c-0.085,0.104-0.167,0.211-0.249,0.316c-0.082,0.105-0.167,0.209-0.246,0.317
	c-0.053,0.071-0.106,0.145-0.158,0.217c-0.193,0.264-0.381,0.532-0.564,0.806c-0.053,0.081-0.109,0.161-0.162,0.242
	c-0.088,0.135-0.173,0.272-0.258,0.409c-0.054,0.087-0.11,0.174-0.164,0.263c-0.083,0.138-0.164,0.278-0.246,0.419
	c-0.053,0.094-0.109,0.188-0.162,0.283c-0.079,0.143-0.16,0.288-0.237,0.433c-0.045,0.084-0.09,0.17-0.135,0.255
	c-0.083,0.157-0.164,0.315-0.244,0.474c-0.038,0.076-0.075,0.153-0.113,0.23c-0.081,0.165-0.161,0.332-0.239,0.499
	c-0.031,0.068-0.062,0.137-0.093,0.205c-0.082,0.181-0.164,0.363-0.243,0.546c-0.002,0.004-0.003,0.008-0.006,0.013
	c-0.303,0.706-0.58,1.425-0.83,2.155c-0.001,0,0,0.001-0.001,0.001c-0.076,0.22-0.148,0.441-0.22,0.664
	c-0.011,0.036-0.023,0.071-0.034,0.106c-0.066,0.209-0.13,0.42-0.192,0.631c-0.013,0.046-0.027,0.092-0.04,0.138
	c-0.061,0.211-0.12,0.421-0.177,0.633c-0.012,0.044-0.023,0.088-0.035,0.133c-0.038,0.145-0.074,0.29-0.111,0.435
	c91.504-16.981,182.834-34.898,273.972-53.74c8.554-25.958,17.321-52.228,28.737-86.785c13.092,29.349,23.456,51.652,34.605,73.532
	c63.06-13.348,126.026-27.142,188.892-41.379c1.372-4.745,2.7-9.482,3.982-14.211c-0.49-0.151-0.97-0.326-1.442-0.523
	c-0.026-0.01-0.05-0.021-0.075-0.031c-0.099-0.042-0.197-0.085-0.295-0.128c-0.025-0.011-0.05-0.023-0.075-0.034
	c-0.098-0.044-0.195-0.09-0.291-0.136c-0.027-0.014-0.055-0.026-0.083-0.04c-0.089-0.043-0.177-0.087-0.265-0.132
	c-0.042-0.021-0.084-0.043-0.126-0.065c-0.076-0.04-0.155-0.081-0.231-0.122c-0.046-0.025-0.092-0.05-0.137-0.076
	c-0.075-0.042-0.151-0.084-0.226-0.127c-0.042-0.024-0.083-0.049-0.125-0.074c-0.078-0.046-0.157-0.093-0.234-0.141
	c-0.024-0.015-0.048-0.03-0.072-0.046c-0.283-0.176-0.558-0.362-0.826-0.555c-0.035-0.024-0.069-0.049-0.103-0.073
	c-0.068-0.051-0.135-0.102-0.203-0.154c-0.041-0.031-0.081-0.062-0.123-0.094c-0.07-0.056-0.14-0.112-0.211-0.169
	c-0.034-0.029-0.069-0.057-0.105-0.086c-0.066-0.055-0.132-0.111-0.197-0.167c-0.04-0.034-0.079-0.068-0.118-0.102
	c-0.063-0.056-0.126-0.113-0.188-0.17c-0.04-0.036-0.079-0.073-0.119-0.11c-0.057-0.053-0.113-0.106-0.169-0.16
	c-0.047-0.047-0.094-0.093-0.14-0.141c-0.049-0.049-0.099-0.099-0.148-0.149c-0.048-0.05-0.095-0.1-0.142-0.151
	c-0.046-0.05-0.094-0.1-0.14-0.15c-0.045-0.049-0.088-0.1-0.132-0.15c-0.048-0.055-0.096-0.108-0.143-0.164
	c-0.086-0.102-0.17-0.204-0.253-0.309c-0.019-0.024-0.038-0.051-0.056-0.075c-0.064-0.081-0.127-0.162-0.189-0.245
	c-0.04-0.055-0.078-0.11-0.118-0.165c-0.043-0.059-0.085-0.118-0.127-0.179c-0.032-0.046-0.062-0.092-0.093-0.138
	c-0.048-0.071-0.094-0.142-0.14-0.215c-0.031-0.046-0.059-0.094-0.088-0.141c-0.043-0.068-0.085-0.137-0.127-0.206
	c-0.031-0.053-0.062-0.107-0.092-0.161c-0.04-0.07-0.08-0.141-0.118-0.211c-0.027-0.049-0.053-0.098-0.079-0.148
	c-0.038-0.074-0.076-0.148-0.113-0.223c-0.027-0.055-0.054-0.109-0.081-0.164c-0.035-0.074-0.068-0.147-0.102-0.22
	c-0.024-0.052-0.047-0.104-0.07-0.157c-0.035-0.081-0.069-0.163-0.102-0.245c-0.021-0.05-0.042-0.101-0.062-0.152
	c-0.043-0.108-0.083-0.218-0.122-0.328c-0.009-0.022-0.017-0.044-0.025-0.066c-0.067-0.193-0.129-0.385-0.188-0.577
	c-0.014-0.047-0.027-0.094-0.042-0.141c-0.045-0.153-0.087-0.304-0.128-0.456c-0.011-0.044-0.024-0.089-0.036-0.133
	c-0.048-0.19-0.093-0.38-0.133-0.569c-0.005-0.025-0.009-0.05-0.016-0.075c-0.033-0.161-0.063-0.321-0.091-0.481
	c-0.009-0.054-0.018-0.108-0.027-0.162c-0.026-0.159-0.048-0.317-0.068-0.474c-0.004-0.03-0.008-0.059-0.012-0.089
	c-0.023-0.184-0.042-0.368-0.056-0.551c-0.005-0.048-0.008-0.096-0.011-0.144c-0.01-0.142-0.018-0.285-0.025-0.427
	c-0.002-0.05-0.005-0.099-0.006-0.148c-0.006-0.184-0.01-0.368-0.009-0.551v-0.001c0-0.185,0.006-0.369,0.014-0.552
	c0.002-0.047,0.005-0.094,0.007-0.141c0.008-0.147,0.017-0.293,0.029-0.439c0.004-0.04,0.006-0.08,0.01-0.12
	c0.016-0.183,0.036-0.366,0.059-0.548c0.004-0.027,0.008-0.055,0.011-0.083c0.021-0.152,0.042-0.303,0.067-0.455
	c0.008-0.053,0.017-0.106,0.026-0.159c0.026-0.153,0.055-0.306,0.086-0.459c0.005-0.027,0.01-0.053,0.015-0.079
	c0.037-0.18,0.078-0.36,0.121-0.539c0.011-0.043,0.023-0.086,0.033-0.129c0.033-0.135,0.068-0.271,0.106-0.406
	c0.015-0.054,0.029-0.108,0.045-0.162c0.047-0.166,0.094-0.332,0.147-0.497c0.006-0.019,0.012-0.038,0.018-0.057
	c0.052-0.163,0.107-0.326,0.163-0.488c0.02-0.056,0.039-0.112,0.059-0.168c0.048-0.132,0.096-0.263,0.145-0.395
	c0.018-0.046,0.035-0.093,0.053-0.139c0.067-0.171,0.134-0.342,0.205-0.512c0.016-0.039,0.033-0.078,0.05-0.117
	c0.059-0.138,0.118-0.276,0.179-0.414c0.024-0.053,0.047-0.106,0.071-0.159c0.062-0.138,0.127-0.276,0.193-0.414
	c0.017-0.037,0.035-0.075,0.053-0.112c0.082-0.169,0.165-0.338,0.25-0.506c0.026-0.051,0.053-0.103,0.08-0.154
	c0.065-0.125,0.13-0.25,0.197-0.375c0.027-0.052,0.056-0.104,0.084-0.155c0.184-0.341,0.377-0.68,0.577-1.018
	c0.033-0.055,0.065-0.11,0.098-0.164c0.078-0.129,0.157-0.258,0.236-0.387c0.027-0.044,0.053-0.087,0.08-0.131
	c0.102-0.163,0.205-0.326,0.31-0.489c0.034-0.053,0.07-0.107,0.105-0.161c0.079-0.122,0.159-0.243,0.24-0.364
	c0.037-0.056,0.075-0.112,0.112-0.167c0.08-0.12,0.161-0.239,0.244-0.358c0.038-0.056,0.076-0.112,0.115-0.167
	c0.112-0.16,0.224-0.32,0.338-0.479c0.037-0.054,0.077-0.109,0.116-0.162c0.076-0.106,0.153-0.211,0.229-0.317
	c0.054-0.073,0.108-0.146,0.161-0.218c0.097-0.133,0.196-0.265,0.295-0.397c0.037-0.049,0.074-0.099,0.112-0.148
	c0.104-0.137,0.208-0.274,0.313-0.411c0.052-0.068,0.105-0.136,0.158-0.204c0.075-0.097,0.151-0.194,0.227-0.291
	c0.058-0.076,0.117-0.151,0.178-0.227c0.116-0.147,0.233-0.293,0.35-0.439c0.049-0.062,0.1-0.124,0.15-0.185
	c0.083-0.103,0.167-0.207,0.25-0.309c0.062-0.075,0.124-0.151,0.186-0.226c0.077-0.095,0.155-0.189,0.233-0.284
	c0.056-0.068,0.113-0.136,0.169-0.204c0.118-0.142,0.238-0.284,0.357-0.426c0.085-0.101,0.17-0.201,0.255-0.302
	c0.046-0.054,0.091-0.107,0.136-0.161c0.084-0.097,0.166-0.195,0.249-0.293c0.062-0.073,0.125-0.145,0.187-0.218
	c0.138-0.16,0.275-0.319,0.413-0.478c0.058-0.066,0.116-0.133,0.174-0.201c0.092-0.105,0.183-0.211,0.275-0.316
	c0.027-0.031,0.055-0.063,0.083-0.094c0.114-0.129,0.227-0.259,0.341-0.389c0.266-0.303,0.535-0.607,0.804-0.91
	c1.659-1.87,3.349-3.738,4.958-5.615c0.007-0.008,0.015-0.017,0.021-0.026c0.148-0.172,0.295-0.344,0.44-0.517
	c0.011-0.012,0.021-0.026,0.033-0.038c0.775-0.916,1.528-1.834,2.245-2.757c0.017-0.022,0.034-0.044,0.051-0.066
	c0.279-0.36,0.553-0.72,0.82-1.081c0.009-0.012,0.018-0.024,0.027-0.036c0.119-0.161,0.237-0.322,0.354-0.484
	c0.023-0.03,0.044-0.061,0.067-0.091c0.127-0.177,0.253-0.354,0.377-0.531c1.31-6.118,2.543-12.215,3.699-18.289
	c0-0.001,0-0.001,0-0.001c-0.034-0.084-0.072-0.164-0.108-0.247c-0.077-0.183-0.154-0.368-0.237-0.546
	c-0.039-0.081-0.081-0.158-0.12-0.238c-0.448-0.911-0.973-1.75-1.57-2.522c-0.027-0.034-0.052-0.071-0.079-0.106
	c-0.123-0.156-0.25-0.306-0.38-0.456c-0.051-0.061-0.1-0.123-0.152-0.183c-0.126-0.143-0.256-0.28-0.388-0.418
	c-0.059-0.062-0.116-0.127-0.176-0.189c-0.143-0.147-0.292-0.289-0.441-0.431c-0.05-0.047-0.098-0.097-0.148-0.144
	c-0.144-0.132-0.291-0.26-0.439-0.388c-0.063-0.055-0.125-0.112-0.19-0.167c-0.135-0.114-0.275-0.224-0.414-0.334
	c-0.082-0.065-0.161-0.131-0.244-0.195c-0.145-0.112-0.294-0.219-0.443-0.326c-0.077-0.056-0.153-0.113-0.23-0.167
	c-0.153-0.107-0.31-0.211-0.467-0.315c-0.081-0.054-0.162-0.11-0.245-0.163c-0.145-0.093-0.293-0.183-0.44-0.274
	c-0.1-0.061-0.197-0.122-0.298-0.182c-0.141-0.084-0.285-0.163-0.429-0.245c-0.11-0.062-0.22-0.126-0.332-0.187
	c-0.149-0.082-0.301-0.161-0.453-0.24c-0.105-0.055-0.208-0.111-0.315-0.164c-0.167-0.086-0.338-0.168-0.508-0.25
	c-0.096-0.046-0.192-0.093-0.287-0.138c-0.166-0.078-0.335-0.154-0.502-0.23c-0.109-0.049-0.217-0.099-0.328-0.147
	c-0.166-0.073-0.335-0.144-0.505-0.216c-0.109-0.045-0.216-0.091-0.325-0.136c-0.179-0.073-0.358-0.144-0.539-0.215
	c-0.106-0.042-0.21-0.083-0.317-0.124c-0.174-0.067-0.351-0.132-0.527-0.198c-0.116-0.043-0.231-0.087-0.348-0.129
	c-0.181-0.065-0.365-0.13-0.548-0.194c-0.11-0.039-0.219-0.076-0.329-0.115c-0.195-0.066-0.391-0.132-0.588-0.196
	c-0.1-0.033-0.199-0.065-0.299-0.098c-0.203-0.066-0.407-0.13-0.613-0.194c-0.101-0.031-0.202-0.064-0.303-0.095
	c-0.193-0.059-0.388-0.118-0.582-0.176c-0.122-0.036-0.243-0.072-0.366-0.109c-0.189-0.056-0.379-0.111-0.571-0.166
	c-0.11-0.031-0.221-0.063-0.333-0.095c-0.223-0.063-0.446-0.125-0.671-0.187c-0.08-0.022-0.161-0.044-0.241-0.066
	c-0.214-0.059-0.43-0.116-0.645-0.174c-0.122-0.032-0.243-0.065-0.364-0.097c-0.204-0.054-0.408-0.107-0.612-0.161
	c-0.097-0.025-0.192-0.05-0.289-0.075c-0.24-0.062-0.48-0.124-0.721-0.185c-0.073-0.018-0.145-0.037-0.218-0.055
	c-0.245-0.062-0.491-0.125-0.736-0.186c-0.075-0.019-0.151-0.038-0.226-0.056c-0.733-0.184-1.468-0.366-2.203-0.55
	c-0.052-0.013-0.103-0.026-0.155-0.039c-0.191-0.047-0.381-0.095-0.572-0.143c-0.181-0.045-0.362-0.091-0.544-0.136
	c-0.17-0.043-0.34-0.086-0.511-0.129c-0.119-0.03-0.237-0.06-0.355-0.091c-0.23-0.059-0.458-0.117-0.687-0.177
	c-0.09-0.023-0.18-0.046-0.268-0.069c-0.202-0.053-0.402-0.106-0.603-0.159c-0.148-0.039-0.297-0.079-0.444-0.118
	c-0.173-0.046-0.344-0.093-0.516-0.14c-0.129-0.036-0.258-0.071-0.388-0.107c-0.197-0.055-0.394-0.11-0.589-0.165
	c-0.121-0.034-0.242-0.069-0.361-0.103c-0.172-0.049-0.343-0.1-0.514-0.15c-0.158-0.047-0.316-0.094-0.474-0.141
	c-0.148-0.044-0.294-0.09-0.44-0.135c-0.154-0.047-0.308-0.095-0.461-0.144c-0.161-0.05-0.322-0.103-0.482-0.154
	c-0.141-0.046-0.28-0.091-0.42-0.138c-0.161-0.053-0.322-0.108-0.483-0.163c-0.145-0.05-0.29-0.1-0.434-0.15
	c-0.14-0.049-0.279-0.1-0.418-0.15c-0.161-0.058-0.323-0.117-0.483-0.176c-0.134-0.05-0.264-0.101-0.396-0.151
	c-0.154-0.059-0.307-0.118-0.459-0.179c-0.136-0.054-0.271-0.11-0.405-0.164c-0.154-0.064-0.307-0.126-0.459-0.191
	c-0.131-0.056-0.259-0.113-0.389-0.17c-0.146-0.063-0.291-0.127-0.434-0.192c-0.139-0.064-0.277-0.128-0.414-0.193
	c-0.133-0.063-0.266-0.126-0.398-0.191c-0.136-0.066-0.271-0.135-0.405-0.203c-0.132-0.068-0.266-0.134-0.396-0.204
	c-0.129-0.068-0.255-0.137-0.382-0.207c-0.132-0.072-0.264-0.144-0.395-0.219c-0.123-0.07-0.243-0.142-0.364-0.214
	c-0.13-0.077-0.261-0.153-0.388-0.232c-0.122-0.076-0.243-0.155-0.364-0.232c-0.122-0.079-0.244-0.156-0.364-0.237
	c-0.12-0.081-0.237-0.164-0.356-0.247c-0.115-0.08-0.23-0.16-0.343-0.242c-0.12-0.088-0.237-0.18-0.356-0.27
	c-0.109-0.083-0.217-0.164-0.323-0.249c-0.109-0.087-0.213-0.178-0.32-0.266c-0.112-0.094-0.226-0.187-0.335-0.284
	c-0.097-0.085-0.189-0.173-0.284-0.259c-0.111-0.103-0.225-0.204-0.334-0.31c-0.096-0.094-0.19-0.191-0.285-0.288
	c-0.102-0.103-0.205-0.206-0.305-0.312c-0.093-0.1-0.182-0.204-0.272-0.306c-0.096-0.107-0.192-0.213-0.285-0.323
	c-0.091-0.109-0.177-0.222-0.266-0.333c-0.086-0.109-0.176-0.216-0.259-0.328c-0.081-0.107-0.156-0.219-0.234-0.328
	c-0.087-0.123-0.177-0.244-0.261-0.37c-0.077-0.115-0.148-0.235-0.221-0.353c-0.077-0.122-0.155-0.243-0.229-0.367
	c-0.081-0.138-0.157-0.281-0.233-0.422c-0.062-0.114-0.128-0.226-0.188-0.342c-0.065-0.126-0.123-0.257-0.185-0.385
	c-0.066-0.138-0.135-0.273-0.197-0.414c-0.06-0.136-0.114-0.278-0.171-0.418c-0.056-0.137-0.116-0.271-0.169-0.412
	c-0.668-1.77-0.955-3.597-0.922-5.423c0.119-6.524,4.32-13.051,9.789-17.018c7.001-5.078,15.676-7.101,23.898-9.781
	c3.252-1.06,6.602-2.327,8.897-4.863c2.076-2.292,2.9-4.874,2.916-7.646c0.058-10.125-10.662-22.793-10.547-33.187
	c0.029-2.598,0.734-5.054,2.454-7.293C1017.673,560.937,1017.784,560.802,1017.894,560.669z"/>
<path style="fill:#66B658;" d="M865.528,872.31c41.397-1.185,69.391-1.945,101.992-2.87c17.26-39.41,31.506-78.825,42.75-117.704
	v-0.001c-62.866,14.237-125.832,28.031-188.892,41.379C833.606,817.11,846.777,840.597,865.528,872.31z"/>
<path style="fill:#66B658;" d="M484.064,860.107c-0.001,0.001-0.002,0.001-0.004,0.001l-0.036,0.154l-0.194,0.835l-0.043,0.199
	l-0.003,0.014l-0.004,0.017l-0.154,0.772l-0.001,0.001l-0.001,0.001l-0.046,0.25l-0.047,0.281l-0.075,0.448l-0.002,0.011
	l-0.002,0.01l-0.042,0.271l-0.108,0.793l-0.023,0.161l-0.002,0.014c-1.085,9.056,0.345,18.392-1.83,27.25
	c-1.059,4.315-2.83,9.161-2.804,13.439c0.016,2.567,0.677,4.928,2.527,6.848c3.334,3.462,9.329,3.611,12.1,7.538
	c1.109,1.573,1.48,3.439,1.49,5.378c0.008,1.71-0.264,3.478-0.554,5.15c-1.906,10.952-3.812,21.904-5.717,32.856
	c-0.61,3.506-1.255,7.109-3.12,10.141c-4.851,7.895-18.124,8.341-23.494,0.789c-2.074-2.916-2.969-6.512-4.835-9.565
	c-3.615-5.916-11.047-9.233-17.864-7.972c-18.161,3.36-15.097,26.26-17.022,39.677c-0.819,5.704-2.625,9.176-2.665,13.945
	c-0.014,1.59,0.17,3.323,0.65,5.331c2.455,10.255,12.241,17.218,13.014,28.257c0.025,0.344,0.034,0.69,0.031,1.038
	c-0.081,7.069-5.866,14.582-12.747,13.194c-6.762-1.364-9.552-9.678-15.441-13.268c-9.349-5.699-21.994,3.981-23.261,14.856
	c-0.119,1.02-0.172,2.034-0.167,3.042c0.049,9.745,5.603,18.928,11.252,27.086c6.231,9.002,13.086,18.456,13.588,29.393
	c0.018,0.396,0.028,0.795,0.031,1.193c0.001,0.2,0.001,0.4,0,0.6c-0.024,3.003-0.377,6.068-0.366,9.043
	c0.01,2.777,0.339,5.477,1.55,7.975c2.369,4.886,7.533,7.708,11.044,11.849c4.366,5.149,6.036,12.181,10.474,17.269
	c4.437,5.088,14.191,6.711,17.011,0.578c0.673-1.465,0.796-3.076,0.793-4.719c-0.001-0.957-0.046-1.927-0.047-2.882
	c-0.005-1.775,0.135-3.506,0.959-5.047c3.522-6.58,14.447-1.848,16.824,5.227c2.377,7.074,0.604,15.085,3.254,22.061
	c2.098,5.521,6.828,9.981,7.786,15.81c0.129,0.788,0.185,1.572,0.184,2.354c-0.016,5.473-2.896,10.816-3.615,16.361
	c-0.107,0.823-0.157,1.658-0.153,2.493c0.029,5.851,2.75,11.786,7.802,14.659l1.045,0.521c5.557-2.692,11.128-5.35,16.716-7.973
	l0.328-1.338l0.008-0.033l0.001-0.005l0.091-0.366l0.001-0.006l0.022-0.084l0.013-0.054l0.078-0.298l0.003-0.012l0.027-0.101
	l0.001-0.004l0.105-0.378l0.007-0.026l0.015-0.05l0.002-0.004l0.008-0.028l0.103-0.339l0.004-0.011l0.002-0.005l0.007-0.023
	l0.132-0.396l0.026-0.072l0.046-0.123l0.071-0.19l0.004-0.011l0.032-0.08l0.001-0.003l0.154-0.366l0.004-0.01l0.007-0.015
	l0.012-0.026l0.146-0.305l0.005-0.011l0.042-0.084l0.001-0.001l0.188-0.344l0.001-0.004l0.009-0.014l0.01-0.017l0.188-0.302
	l0.009-0.012l0.027-0.041l0.02-0.03l0.089-0.123l0.144-0.199l0.01-0.012l0.243-0.291l0.002-0.002l0.064-0.071l0.004-0.005
	l0.282-0.29c1.855-1.769,4.634-2.052,7.191-2.24l1.071-0.074l0.053-0.004l0.208-0.014l0.054-0.004l0.989-0.061l0.12-0.008
	l1.157-0.061l0.045-0.002l0.036-0.002l0.116-0.005l0.985-0.043l0.071-0.003l0.093-0.004l0.055-0.002
	c0.023-0.001,0.047-0.001,0.071-0.002c0.746-0.029,1.494-0.052,2.247-0.067c0.027,0,0.054-0.002,0.081-0.002l0.126-0.003
	c0.824-0.016,1.651-0.024,2.48-0.023h0.019c36.98-16.687,74.645-31.798,113.055-44.964c23.337-8,46.944-15.286,70.759-22.01
	c-0.697-24.609-0.878-50.235-0.752-82.877c-54.348-41.257-79.873-62.199-125.998-105.331
	c54.616-22.736,84.912-34.737,133.851-53.788c0.859-0.335,1.723-0.671,2.594-1.01c1.74-0.677,3.505-1.364,5.295-2.06
	c0.895-0.348,1.797-0.698,2.705-1.052c1.817-0.706,3.66-1.423,5.531-2.15c0.935-0.363,1.879-0.73,2.829-1.099
	c11.987-37.915,21.064-65.856,30.395-94.168C666.898,825.209,575.568,843.126,484.064,860.107z"/>
<path style="fill:#E6293C;" d="M701.586,1149.902c-23.814,6.724-47.421,14.01-70.759,22.01
	c-38.41,13.166-76.075,28.277-113.055,44.964h0.001l0.112,0.001c0.013,0,0.025,0.001,0.038,0.001c0.598,0.002,1.2,0.008,1.801,0.02
	c0.019,0.001,0.038,0.001,0.056,0.001l0.16,0.004l0.158,0.003l0.048,0.001l0.434,0.012l0.11,0.003l0.172,0.005l0.112,0.003
	l0.43,0.015l0.052,0.002l0.262,0.01l0.152,0.006l0.38,0.016l0.402,0.02l0.065,0.003l0.811,0.045l0.109,0.006l0.212,0.012
	l0.459,0.031l0.147,0.01l0.194,0.013l0.065,0.005l0.431,0.033l0.1,0.008l0.235,0.019l0.066,0.005l0.428,0.036l0.034,0.004
	l0.264,0.024l0.114,0.011l0.426,0.04l0.026,0.003l0.052,0.005l0.7,0.072l0.356,0.04l0.256,0.03l0.161,0.018l0.027,0.004l0.454,0.056
	l0.106,0.014l0.221,0.028l0.052,0.007l0.426,0.058l0.046,0.006l0.282,0.04l0.086,0.012l0.392,0.058l0.017,0.003l0.345,0.053
	l0.167,0.026l0.278,0.044l0.767,0.13l0.394,0.072l0.141,0.026l0.215,0.04l0.06,0.011l0.388,0.075l0.048,0.01l0.315,0.062
	l0.058,0.012l0.391,0.081l0.032,0.007l0.29,0.063l0.093,0.02l0.366,0.081l0.03,0.007l0.309,0.072l0.138,0.032l0.05,0.012
	l0.448,0.109l0.048,0.012l0.415,0.104l0.047,0.012l0.042,0.011l0.331,0.088l0.118,0.032l0.283,0.077l0.059,0.016l0.307,0.087
	l0.01,0.003l0.413,0.119l0.046,0.013l0.325,0.097l0.012,0.004l0.377,0.117l0.059,0.018l0.312,0.098l0.023,0.008l0.55,0.183
	l0.146,0.049l0.176,0.062l0.053,0.019l0.475,0.168l0.033,0.011l0.289,0.107l0.051,0.02l0.383,0.145l0.022,0.008l0.288,0.113
	l0.027,0.011l0.36,0.145l0.043,0.017l0.301,0.125l0.016,0.006l0.375,0.161l0.075,0.032l0.24,0.104l0.018,0.009l0.466,0.213
	l0.191,0.088l0.219,0.106l0.042,0.021l0.403,0.196l0.021,0.01l0.263,0.134l0.009,0.005l0.397,0.206l0.027,0.014l0.249,0.134
	l0.018,0.01l0.368,0.203l0.039,0.021l0.247,0.139l0.01,0.007l0.427,0.251l0.02,0.012l0.031,0.018l0.166,0.099l0.025,0.015
	l0.575,0.36l0.015,0.009l0.209,0.138l0.045,0.03l0.348,0.233l0.01,0.006l0.261,0.18l0.025,0.018l0.32,0.229l0.007,0.005l0.249,0.181
	l0.02,0.015l0.33,0.25l0.03,0.022l0.208,0.161l0.001,0l0.505,0.408l0.063,0.051l0.042,0.036l0.001,0.001l0.072,0.063l0.442,0.382
	l0.029,0.026l0.152,0.138l0.019,0.018l0.328,0.302l0.017,0.015l0.203,0.195l0.009,0.01l0.331,0.326l0.005,0.006l0.176,0.177
	l0.003,0.002l0.353,0.373l0.02,0.02l0.143,0.152l0.008,0.01l0.464,0.525l0.006,0.006l0.152,0.182l0.051,0.061l0.255,0.31l0.015,0.02
	l0.018,0.022l0.162,0.206l0.02,0.027l0.251,0.328l0.01,0.013l0.109,0.148l0.07,0.094l0.167,0.234l0.107,0.15l0.006,0.009
	l0.151,0.217l0.007,0.011l0.284,0.433l0.049,0.075l0.026,0.039l0.047,0.074l0.002,0.003l0.392,0.647l0,0l0.108,0.19l0.01,0.017
	l0.078,0.141l0.18,0.322l0.136,0.258l0.087,0.17l0.133,0.26l0.005,0.008l0.098,0.201l0.032,0.065l0.084,0.179l0.139,0.299
	l0.005,0.01l0.103,0.228l0.001,0.002l0.293,0.693l0.017,0.039c1.784,4.434,2.127,9.445,4.591,13.54
	c3.565,5.926,11.185,9.303,12.766,16.035c0.224,0.958,0.309,1.926,0.305,2.9c-0.014,3.41-1.113,6.9-1.062,10.312
	c0.011,0.813,0.088,1.62,0.26,2.422c1.657,7.701,11.371,11.993,12.14,19.831c0,0.002,0,0.004,0,0.007
	c0.018,0.184,0.031,0.367,0.038,0.55c0.003,0.06,0.003,0.121,0.004,0.182c0.003,0.123,0.005,0.245,0.004,0.367
	c-0.001,0.074-0.004,0.148-0.006,0.222c-0.004,0.111-0.008,0.223-0.015,0.334c-0.005,0.074-0.01,0.147-0.015,0.22
	c-0.009,0.11-0.02,0.22-0.031,0.329c-0.008,0.077-0.016,0.152-0.026,0.229c-0.014,0.112-0.03,0.223-0.047,0.334
	c-0.011,0.069-0.019,0.137-0.031,0.205c-0.022,0.134-0.047,0.268-0.073,0.402c-0.009,0.046-0.016,0.093-0.026,0.14
	c-0.035,0.176-0.074,0.35-0.115,0.525c-0.017,0.07-0.035,0.14-0.052,0.21c-0.029,0.116-0.058,0.231-0.088,0.345
	c-0.018,0.069-0.037,0.137-0.056,0.205c-0.03,0.109-0.06,0.217-0.091,0.325c-0.026,0.086-0.052,0.173-0.077,0.259
	c-0.027,0.088-0.054,0.175-0.081,0.263c-0.029,0.089-0.056,0.178-0.086,0.267c-0.032,0.099-0.064,0.196-0.096,0.294
	c-0.027,0.081-0.055,0.163-0.082,0.245c-0.026,0.078-0.053,0.156-0.08,0.233c-0.289,0.84-0.601,1.677-0.9,2.517
	c41.089-21.383,82.141-49.059,121.966-82.379c0.001,0,0.001-0.001,0.001-0.001C703.488,1197.975,702.28,1174.443,701.586,1149.902z"
	/>
<path style="fill:#FFFFFF;" d="M865.528,872.31c-18.751-31.713-31.923-55.201-44.149-79.196
	c-11.149-21.88-21.513-44.183-34.605-73.532c-11.416,34.557-20.183,60.828-28.737,86.785c-9.331,28.312-18.408,56.253-30.395,94.168
	c-0.95,0.369-1.894,0.736-2.829,1.099c-1.871,0.728-3.714,1.445-5.531,2.15c-0.908,0.353-1.81,0.704-2.705,1.052
	c-1.79,0.696-3.555,1.383-5.295,2.06c-0.871,0.339-1.734,0.675-2.594,1.01c-48.94,19.051-79.235,31.052-133.851,53.788
	c46.125,43.131,71.65,64.074,125.998,105.331c-0.126,32.642,0.055,58.268,0.752,82.877c0.694,24.542,1.902,48.074,3.831,76.547
	c77.687-64.998,150.709-151.469,210.248-254.595c19.57-33.895,36.85-68.152,51.856-102.414
	C934.919,870.365,906.925,871.125,865.528,872.31z"/>
</svg>
